<mxfile host="app.diagrams.net" modified="2024-05-30T02:34:17.208Z" agent="Mozilla/5.0 (Windows NT 10.0; Win64; x64) AppleWebKit/537.36 (KHTML, like Gecko) Chrome/125.0.0.0 Safari/537.36" etag="eGl82sVTWJGUOBAVai9S" version="24.4.9" type="github">
  <diagram name="EXERCISE-1" id="jf3Z4JMMC97Lukkn_Zwi">
    <mxGraphModel dx="1050" dy="653" grid="1" gridSize="10" guides="1" tooltips="1" connect="1" arrows="1" fold="1" page="1" pageScale="1" pageWidth="827" pageHeight="1169" math="0" shadow="0">
      <root>
        <mxCell id="0" />
        <mxCell id="1" parent="0" />
        <mxCell id="LwOhmdRY5F4x60Meo5xe-1" value="EXERCISE 1 P2" style="text;html=1;align=center;verticalAlign=middle;resizable=0;points=[];autosize=1;strokeColor=none;fillColor=none;" vertex="1" parent="1">
          <mxGeometry x="315" width="110" height="30" as="geometry" />
        </mxCell>
        <mxCell id="LwOhmdRY5F4x60Meo5xe-2" value="" style="edgeStyle=orthogonalEdgeStyle;rounded=0;orthogonalLoop=1;jettySize=auto;html=1;" edge="1" parent="1" source="LwOhmdRY5F4x60Meo5xe-3" target="LwOhmdRY5F4x60Meo5xe-5">
          <mxGeometry relative="1" as="geometry" />
        </mxCell>
        <mxCell id="LwOhmdRY5F4x60Meo5xe-3" value="INICIO" style="ellipse;whiteSpace=wrap;html=1;" vertex="1" parent="1">
          <mxGeometry x="330" y="30" width="80" height="80" as="geometry" />
        </mxCell>
        <mxCell id="LwOhmdRY5F4x60Meo5xe-4" value="" style="edgeStyle=orthogonalEdgeStyle;rounded=0;orthogonalLoop=1;jettySize=auto;html=1;" edge="1" parent="1" source="LwOhmdRY5F4x60Meo5xe-5" target="LwOhmdRY5F4x60Meo5xe-7">
          <mxGeometry relative="1" as="geometry" />
        </mxCell>
        <mxCell id="LwOhmdRY5F4x60Meo5xe-5" value="INPUT doc" style="shape=parallelogram;perimeter=parallelogramPerimeter;whiteSpace=wrap;html=1;fixedSize=1;" vertex="1" parent="1">
          <mxGeometry x="310" y="150" width="120" height="60" as="geometry" />
        </mxCell>
        <mxCell id="LwOhmdRY5F4x60Meo5xe-6" value="" style="edgeStyle=orthogonalEdgeStyle;rounded=0;orthogonalLoop=1;jettySize=auto;html=1;" edge="1" parent="1" source="LwOhmdRY5F4x60Meo5xe-7" target="LwOhmdRY5F4x60Meo5xe-10">
          <mxGeometry relative="1" as="geometry" />
        </mxCell>
        <mxCell id="LwOhmdRY5F4x60Meo5xe-7" value="i=0" style="whiteSpace=wrap;html=1;" vertex="1" parent="1">
          <mxGeometry x="310" y="230" width="120" height="60" as="geometry" />
        </mxCell>
        <mxCell id="LwOhmdRY5F4x60Meo5xe-8" value="" style="edgeStyle=orthogonalEdgeStyle;rounded=0;orthogonalLoop=1;jettySize=auto;html=1;" edge="1" parent="1" source="LwOhmdRY5F4x60Meo5xe-10" target="LwOhmdRY5F4x60Meo5xe-15">
          <mxGeometry relative="1" as="geometry" />
        </mxCell>
        <mxCell id="LwOhmdRY5F4x60Meo5xe-9" value="" style="edgeStyle=orthogonalEdgeStyle;rounded=0;orthogonalLoop=1;jettySize=auto;html=1;" edge="1" parent="1" source="LwOhmdRY5F4x60Meo5xe-10" target="LwOhmdRY5F4x60Meo5xe-22">
          <mxGeometry relative="1" as="geometry" />
        </mxCell>
        <mxCell id="LwOhmdRY5F4x60Meo5xe-10" value="i&amp;lt;=doc.size()" style="rhombus;whiteSpace=wrap;html=1;fillColor=#fff2cc;strokeColor=#d6b656;" vertex="1" parent="1">
          <mxGeometry x="320" y="320" width="100" height="80" as="geometry" />
        </mxCell>
        <mxCell id="LwOhmdRY5F4x60Meo5xe-11" value="NO" style="text;html=1;align=center;verticalAlign=middle;resizable=0;points=[];autosize=1;strokeColor=none;fillColor=none;" vertex="1" parent="1">
          <mxGeometry x="410" y="320" width="40" height="30" as="geometry" />
        </mxCell>
        <mxCell id="LwOhmdRY5F4x60Meo5xe-12" value="SI" style="text;html=1;align=center;verticalAlign=middle;resizable=0;points=[];autosize=1;strokeColor=none;fillColor=none;" vertex="1" parent="1">
          <mxGeometry x="385" y="398" width="30" height="30" as="geometry" />
        </mxCell>
        <mxCell id="LwOhmdRY5F4x60Meo5xe-13" value="" style="edgeStyle=orthogonalEdgeStyle;rounded=0;orthogonalLoop=1;jettySize=auto;html=1;" edge="1" parent="1" source="LwOhmdRY5F4x60Meo5xe-15" target="LwOhmdRY5F4x60Meo5xe-17">
          <mxGeometry relative="1" as="geometry" />
        </mxCell>
        <mxCell id="LwOhmdRY5F4x60Meo5xe-14" value="" style="edgeStyle=orthogonalEdgeStyle;rounded=0;orthogonalLoop=1;jettySize=auto;html=1;" edge="1" parent="1" source="LwOhmdRY5F4x60Meo5xe-15" target="LwOhmdRY5F4x60Meo5xe-20">
          <mxGeometry relative="1" as="geometry" />
        </mxCell>
        <mxCell id="LwOhmdRY5F4x60Meo5xe-15" value="doc[ i ]==&#39; &#39;" style="rhombus;whiteSpace=wrap;html=1;fillColor=#fff2cc;strokeColor=#d6b656;" vertex="1" parent="1">
          <mxGeometry x="320" y="440" width="100" height="80" as="geometry" />
        </mxCell>
        <mxCell id="LwOhmdRY5F4x60Meo5xe-16" style="edgeStyle=orthogonalEdgeStyle;rounded=0;orthogonalLoop=1;jettySize=auto;html=1;exitX=0.5;exitY=0;exitDx=0;exitDy=0;entryX=0;entryY=0.5;entryDx=0;entryDy=0;" edge="1" parent="1" source="LwOhmdRY5F4x60Meo5xe-17" target="LwOhmdRY5F4x60Meo5xe-10">
          <mxGeometry relative="1" as="geometry" />
        </mxCell>
        <mxCell id="LwOhmdRY5F4x60Meo5xe-17" value="++i" style="whiteSpace=wrap;html=1;" vertex="1" parent="1">
          <mxGeometry x="170" y="455" width="80" height="50" as="geometry" />
        </mxCell>
        <mxCell id="LwOhmdRY5F4x60Meo5xe-18" value="NO" style="text;html=1;align=center;verticalAlign=middle;resizable=0;points=[];autosize=1;strokeColor=none;fillColor=none;" vertex="1" parent="1">
          <mxGeometry x="280" y="450" width="40" height="30" as="geometry" />
        </mxCell>
        <mxCell id="LwOhmdRY5F4x60Meo5xe-19" style="edgeStyle=orthogonalEdgeStyle;rounded=0;orthogonalLoop=1;jettySize=auto;html=1;exitX=0;exitY=0.5;exitDx=0;exitDy=0;" edge="1" parent="1" source="LwOhmdRY5F4x60Meo5xe-20">
          <mxGeometry relative="1" as="geometry">
            <mxPoint x="210" y="510" as="targetPoint" />
          </mxGeometry>
        </mxCell>
        <mxCell id="LwOhmdRY5F4x60Meo5xe-20" value="OUTPUT&lt;div&gt;i&lt;/div&gt;" style="shape=parallelogram;perimeter=parallelogramPerimeter;whiteSpace=wrap;html=1;fixedSize=1;" vertex="1" parent="1">
          <mxGeometry x="310" y="545" width="120" height="60" as="geometry" />
        </mxCell>
        <mxCell id="LwOhmdRY5F4x60Meo5xe-21" value="" style="edgeStyle=orthogonalEdgeStyle;rounded=0;orthogonalLoop=1;jettySize=auto;html=1;" edge="1" parent="1" source="LwOhmdRY5F4x60Meo5xe-22" target="LwOhmdRY5F4x60Meo5xe-23">
          <mxGeometry relative="1" as="geometry" />
        </mxCell>
        <mxCell id="LwOhmdRY5F4x60Meo5xe-22" value="OUTPUT&lt;div&gt;doc.size()&lt;/div&gt;" style="shape=parallelogram;perimeter=parallelogramPerimeter;whiteSpace=wrap;html=1;fixedSize=1;" vertex="1" parent="1">
          <mxGeometry x="450" y="330" width="120" height="60" as="geometry" />
        </mxCell>
        <mxCell id="LwOhmdRY5F4x60Meo5xe-23" value="FIN" style="ellipse;whiteSpace=wrap;html=1;" vertex="1" parent="1">
          <mxGeometry x="600" y="320" width="80" height="80" as="geometry" />
        </mxCell>
      </root>
    </mxGraphModel>
  </diagram>
</mxfile>
